<svg xmlns="http://www.w3.org/2000/svg" xmlns:xlink="http://www.w3.org/1999/xlink" width="500" zoomAndPan="magnify" viewBox="0 0 375 374.999991" height="500" preserveAspectRatio="xMidYMid meet" version="1.0"><defs><g/><clipPath id="296404c199"><path d="M 156 179 L 233 179 L 233 245.542969 L 156 245.542969 Z M 156 179 " clip-rule="nonzero"/></clipPath><clipPath id="9ac265d1e3"><path d="M 222 167 L 253.582031 167 L 253.582031 205 L 222 205 Z M 222 167 " clip-rule="nonzero"/></clipPath><clipPath id="210bc4a136"><path d="M 134.332031 164 L 168 164 L 168 204 L 134.332031 204 Z M 134.332031 164 " clip-rule="nonzero"/></clipPath><clipPath id="d26e6f8657"><path d="M 156 129.292969 L 193 129.292969 L 193 178 L 156 178 Z M 156 129.292969 " clip-rule="nonzero"/></clipPath><clipPath id="c53c234e7e"><path d="M 194 129.292969 L 231 129.292969 L 231 178 L 194 178 Z M 194 129.292969 " clip-rule="nonzero"/></clipPath><clipPath id="75e45e6531"><path d="M 153 176 L 232 176 L 232 245.542969 L 153 245.542969 Z M 153 176 " clip-rule="nonzero"/></clipPath></defs><g clip-path="url(#296404c199)"><path fill="#f7855b" d="M 212.5 245.519531 C 223.421875 244.734375 242.6875 237.050781 226.484375 208.746094 C 211.140625 181.949219 198.074219 180.109375 198.074219 180.109375 C 195.375 179.171875 192.300781 180.109375 192.300781 180.109375 C 192.300781 180.109375 182.0625 181.269531 163.890625 208.746094 C 144.824219 237.566406 168.105469 243.988281 179.21875 245.277344 C 181.40625 245.535156 188.132812 245.015625 188.132812 245.015625 C 188.132812 245.015625 194.746094 243.390625 203.625 245.015625 L 212.5 245.519531 " fill-opacity="1" fill-rule="nonzero"/></g><path fill="#f7855b" d="M 158.925781 174.359375 C 158.925781 174.359375 177.539062 189.503906 162.355469 201.230469 C 147.167969 212.957031 136.394531 191.015625 137.863281 179.265625 C 139.332031 167.515625 146.113281 162.496094 158.925781 174.359375 " fill-opacity="1" fill-rule="nonzero"/><path fill="#f7855b" d="M 188.472656 145.929688 C 188.472656 145.929688 203.582031 170.386719 181.761719 177.710938 C 159.9375 185.035156 156.378906 155.957031 162.679688 143.226562 C 168.972656 130.496094 178.632812 127.464844 188.472656 145.929688 " fill-opacity="1" fill-rule="nonzero"/><path fill="#f7855b" d="M 202.523438 145.929688 C 202.523438 145.929688 187.414062 170.386719 209.234375 177.710938 C 231.058594 185.035156 234.617188 155.957031 228.316406 143.226562 C 222.023438 130.496094 212.363281 127.464844 202.523438 145.929688 " fill-opacity="1" fill-rule="nonzero"/><g clip-path="url(#9ac265d1e3)"><path fill="#f7855b" d="M 232.382812 174.359375 C 232.382812 174.359375 213.773438 189.503906 228.957031 201.230469 C 244.140625 212.957031 254.917969 191.015625 253.449219 179.265625 C 251.976562 167.515625 245.199219 162.496094 232.382812 174.359375 " fill-opacity="1" fill-rule="nonzero"/></g><g clip-path="url(#210bc4a136)"><path fill="#bd7a5f" d="M 155.863281 172.929688 C 160.308594 176.558594 164.746094 182.21875 164.894531 188.152344 C 165.019531 193.367188 160.886719 197.53125 156.53125 199.792969 C 152.769531 201.746094 148.578125 201.273438 145.285156 198.65625 C 142.011719 196.050781 139.851562 192.164062 138.460938 188.292969 C 137.097656 184.484375 136.398438 180.34375 137.003906 176.320312 C 137.523438 172.847656 138.757812 167.96875 142.578125 166.746094 C 144.402344 166.164062 146.417969 166.695312 148.113281 167.441406 C 151.023438 168.722656 153.542969 170.800781 155.863281 172.929688 C 157.035156 174.003906 158.789062 172.265625 157.613281 171.183594 C 153.898438 167.777344 148.742188 163.472656 143.285156 164.105469 C 139.003906 164.601562 136.613281 168.332031 135.417969 172.121094 C 132.71875 180.683594 135.269531 190.5625 140.722656 197.519531 C 143.269531 200.773438 146.871094 203.214844 151.074219 203.492188 C 156.089844 203.828125 161.042969 200.53125 164.128906 196.851562 C 167.15625 193.242188 168.027344 188.667969 166.742188 184.171875 C 165.667969 180.417969 163.316406 177.085938 160.726562 174.214844 C 159.761719 173.144531 158.730469 172.101562 157.613281 171.1875 C 156.390625 170.1875 154.632812 171.921875 155.863281 172.929688 " fill-opacity="1" fill-rule="nonzero"/></g><g clip-path="url(#d26e6f8657)"><path fill="#bd7a5f" d="M 185.214844 144.25 C 187.628906 148.167969 189.292969 152.773438 189.949219 157.308594 C 190.453125 160.773438 190.09375 164.445312 188.335938 167.519531 C 186.035156 171.535156 181.558594 173.71875 177.222656 174.808594 C 159.238281 179.339844 156.074219 154.242188 161.144531 142.4375 C 162.921875 138.296875 166.394531 132.375 171.4375 131.84375 C 173.863281 131.585938 176.09375 132.789062 177.890625 134.304688 C 181.054688 136.964844 183.28125 140.65625 185.214844 144.25 C 185.96875 145.652344 188.101562 144.40625 187.351562 143.003906 C 184.75 138.167969 181.328125 132.578125 176.082031 130.238281 C 172.335938 128.566406 168.5625 129.511719 165.472656 132.027344 C 162.121094 134.753906 159.722656 138.992188 158.289062 143.003906 C 157 146.609375 156.5 150.523438 156.464844 154.335938 C 156.398438 161.777344 158.347656 170.324219 164.542969 175.085938 C 171.441406 180.390625 182.636719 177.382812 188.296875 171.621094 C 195.800781 163.976562 192.335938 151.097656 187.351562 143.007812 C 186.515625 141.65625 184.378906 142.890625 185.214844 144.25 " fill-opacity="1" fill-rule="nonzero"/></g><g clip-path="url(#c53c234e7e)"><path fill="#bd7a5f" d="M 199.273438 143.003906 C 196.828125 146.972656 195.089844 151.648438 194.351562 156.234375 C 193.757812 159.902344 193.878906 163.714844 195.359375 167.167969 C 197.09375 171.21875 200.574219 174.050781 204.558594 175.769531 C 208.648438 177.53125 213.316406 178.457031 217.691406 177.253906 C 221.226562 176.277344 224.050781 173.8125 226.027344 170.796875 C 230.316406 164.257812 230.84375 155.398438 229.578125 147.894531 C 229.023438 144.59375 227.914062 141.503906 226.292969 138.578125 C 224.488281 135.328125 222.027344 132.035156 218.617188 130.34375 C 209.808594 125.976562 202.746094 136.539062 199.273438 143.003906 C 198.519531 144.40625 200.652344 145.652344 201.40625 144.25 C 203.851562 139.699219 207.246094 133.738281 212.566406 132.097656 C 216.382812 130.925781 219.65625 133.566406 221.902344 136.367188 C 227.007812 142.726562 228.355469 151.246094 227.40625 159.15625 C 226.574219 166.085938 223.167969 173.917969 215.527344 175.207031 C 211.101562 175.957031 206.066406 174.230469 202.410156 171.828125 C 199.203125 169.722656 197.121094 166.351562 196.621094 162.5625 C 195.804688 156.375 198.171875 149.5 201.40625 144.25 C 202.242188 142.890625 200.101562 141.65625 199.273438 143.003906 " fill-opacity="1" fill-rule="nonzero"/></g><path fill="#bd7a5f" d="M 229.324219 171.183594 C 224.710938 174.953125 220.429688 180.65625 219.679688 186.667969 C 219.054688 191.707031 221.503906 196.128906 225.289062 199.316406 C 228.902344 202.363281 233.53125 204.324219 238.277344 203.117188 C 242.386719 202.070312 245.550781 198.78125 247.78125 195.34375 C 250.210938 191.59375 251.757812 187.164062 252.367188 182.753906 C 253.34375 175.640625 251.027344 162.730469 241.269531 164.164062 C 236.648438 164.84375 232.644531 168.136719 229.324219 171.183594 C 228.148438 172.265625 229.898438 174.003906 231.070312 172.929688 C 234.386719 169.890625 239.785156 165.109375 244.753906 166.882812 C 248.597656 168.253906 249.710938 173.933594 250.070312 177.402344 C 250.511719 181.609375 249.464844 185.949219 247.886719 189.824219 C 246.316406 193.679688 243.773438 197.53125 240.121094 199.691406 C 236.398438 201.894531 232.273438 201.082031 228.777344 198.847656 C 224.695312 196.242188 221.675781 192.144531 222.097656 187.160156 C 222.570312 181.65625 226.917969 176.320312 231.070312 172.929688 C 232.304688 171.921875 230.546875 170.1875 229.324219 171.183594 " fill-opacity="1" fill-rule="nonzero"/><path fill="#bd7a5f" d="M 228.054688 211.699219 C 227.738281 211.007812 227.382812 210.34375 227.03125 209.667969 C 226.722656 209.074219 225.902344 208.902344 225.34375 209.230469 C 224.738281 209.582031 224.585938 210.316406 224.898438 210.914062 C 225.246094 211.589844 225.605469 212.253906 225.921875 212.945312 C 226.195312 213.558594 227.074219 213.699219 227.609375 213.386719 C 228.238281 213.019531 228.332031 212.3125 228.054688 211.699219 " fill-opacity="1" fill-rule="nonzero"/><g clip-path="url(#75e45e6531)"><path fill="#bd7a5f" d="M 225.363281 206.554688 C 219.933594 197.109375 213.332031 187.65625 204.3125 181.277344 C 200.996094 178.933594 196.875 176.78125 192.691406 176.898438 C 191.726562 176.925781 190.730469 177.082031 189.804688 177.339844 C 190.445312 177.160156 189.894531 177.328125 189.675781 177.367188 C 189.363281 177.425781 189.054688 177.519531 188.757812 177.625 C 187.078125 178.203125 185.515625 179.101562 184.046875 180.082031 C 176.398438 185.195312 170.414062 192.785156 165.074219 200.132812 C 161.070312 205.640625 157.140625 211.355469 154.804688 217.796875 C 153.34375 221.8125 152.667969 226.265625 153.765625 230.457031 C 155.53125 237.203125 161.875 241.089844 168.128906 243.101562 C 170.972656 244.015625 173.921875 244.566406 176.882812 244.925781 C 178.984375 245.179688 181.175781 244.972656 183.28125 244.851562 C 184.375 244.792969 185.507812 244.792969 186.585938 244.566406 C 188.410156 244.183594 190.289062 244.042969 192.148438 243.976562 C 193.714844 243.921875 195.28125 243.972656 196.84375 244.085938 C 198.40625 244.199219 199.960938 244.59375 201.515625 244.683594 C 204.445312 244.851562 207.375 245.015625 210.304688 245.183594 C 211.570312 245.253906 213.003906 244.898438 214.242188 244.660156 C 215.753906 244.371094 217.246094 243.957031 218.691406 243.4375 C 221.726562 242.347656 224.566406 240.722656 226.871094 238.457031 C 233.148438 232.277344 232.410156 223.058594 229.589844 215.417969 C 229.046875 213.941406 226.65625 214.582031 227.207031 216.074219 C 229.011719 220.964844 230.140625 226.367188 228.453125 231.449219 C 227.265625 235.007812 224.523438 237.730469 221.316406 239.554688 C 218.363281 241.234375 214.957031 242.199219 211.59375 242.597656 C 208.585938 242.957031 205.40625 242.441406 202.390625 242.269531 C 199.972656 242.132812 197.597656 241.628906 195.167969 241.523438 C 192.566406 241.410156 189.957031 241.566406 187.382812 241.9375 C 186.84375 242.011719 186.308594 242.105469 185.777344 242.21875 C 185.40625 242.300781 185.972656 242.210938 185.898438 242.21875 C 185.628906 242.238281 185.359375 242.257812 185.09375 242.273438 C 182.898438 242.425781 180.695312 242.554688 178.492188 242.546875 C 175.628906 242.535156 172.667969 241.84375 169.886719 241.054688 C 166.808594 240.179688 163.832031 238.910156 161.238281 237.011719 C 158.671875 235.136719 156.804688 232.480469 156.042969 229.394531 C 154.992188 225.121094 156.246094 220.507812 157.921875 216.566406 C 160.664062 210.117188 164.972656 204.285156 169.175781 198.722656 C 172.363281 194.503906 175.816406 190.449219 179.660156 186.808594 C 181.820312 184.765625 184.125 182.851562 186.6875 181.332031 C 187.414062 180.898438 188.167969 180.507812 188.945312 180.175781 C 188.617188 180.316406 189.3125 180.035156 189.46875 179.984375 C 189.65625 179.917969 189.851562 179.859375 190.042969 179.808594 C 190.839844 179.601562 189.65625 179.949219 190.53125 179.699219 C 192.296875 179.207031 193.882812 179.417969 195.644531 179.742188 C 196.03125 179.8125 196.40625 179.925781 196.777344 180.042969 C 197.71875 180.347656 198.066406 180.511719 198.902344 180.917969 C 202.699219 182.753906 205.996094 185.5 208.96875 188.445312 C 214.683594 194.105469 219.238281 200.859375 223.230469 207.800781 C 224.023438 209.179688 226.160156 207.9375 225.363281 206.554688 " fill-opacity="1" fill-rule="nonzero"/></g><g fill="#9f3f73" fill-opacity="1"><g transform="translate(170.180568, 229.90915)"><g><path d="M 17.449219 -19.664062 L 17.449219 -24.101562 L 2.636719 -24.101562 L 2.636719 0 L 17.449219 0 L 17.449219 -4.433594 L 7.648438 -4.433594 L 7.648438 -9.832031 L 16.097656 -9.832031 L 16.097656 -14.265625 L 7.648438 -14.265625 L 7.648438 -19.664062 Z M 17.449219 -19.664062 "/></g></g></g><g fill="#9f3f73" fill-opacity="1"><g transform="translate(189.073731, 229.90915)"><g><path d="M 24.742188 0.707031 C 23.105469 1.992188 21.433594 2.570312 19.761719 2.378906 C 18.058594 2.183594 16.964844 1.414062 16.453125 0.0625 C 19.28125 -0.515625 21.625 -1.929688 23.488281 -4.210938 C 25.351562 -6.457031 26.316406 -9.09375 26.316406 -12.050781 C 26.316406 -15.457031 25.097656 -18.378906 22.6875 -20.789062 C 20.277344 -23.199219 17.351562 -24.421875 13.945312 -24.421875 C 10.507812 -24.421875 7.582031 -23.199219 5.171875 -20.789062 C 2.761719 -18.378906 1.574219 -15.457031 1.574219 -12.050781 C 1.574219 -8.996094 2.539062 -6.332031 4.53125 -4.015625 C 6.492188 -1.703125 8.964844 -0.320312 11.921875 0.160156 C 12.148438 1.703125 12.789062 2.988281 13.851562 4.082031 C 14.878906 5.171875 16.132812 5.945312 17.546875 6.394531 C 18.957031 6.84375 20.5 6.910156 22.238281 6.585938 C 23.972656 6.296875 25.578125 5.589844 27.089844 4.464844 Z M 6.492188 -12.050781 C 6.492188 -14.140625 7.199219 -15.90625 8.644531 -17.351562 C 10.058594 -18.765625 11.824219 -19.503906 13.945312 -19.503906 C 16.035156 -19.503906 17.800781 -18.765625 19.25 -17.351562 C 20.660156 -15.90625 21.402344 -14.140625 21.402344 -12.050781 C 21.402344 -9.929688 20.660156 -8.160156 19.25 -6.75 C 17.800781 -5.300781 16.035156 -4.59375 13.945312 -4.59375 C 11.824219 -4.59375 10.058594 -5.300781 8.644531 -6.75 C 7.199219 -8.160156 6.492188 -9.929688 6.492188 -12.050781 Z M 6.492188 -12.050781 "/></g></g></g><path stroke-linecap="butt" transform="matrix(0.167678, 0, 0, 0.167678, 131.245294, 199.651187)" fill="none" stroke-linejoin="miter" d="M 328.807359 55.708118 L 328.807359 29.266929 L 240.468162 29.266929 L 240.468162 173.004493 L 328.807359 173.004493 L 328.807359 146.563304 L 270.357188 146.563304 L 270.357188 114.367953 L 320.746873 114.367953 L 320.746873 87.903468 L 270.357188 87.903468 L 270.357188 55.708118 Z M 484.985095 177.221106 C 475.223986 184.885556 465.253212 188.35669 455.282438 187.168584 C 445.125294 186.050366 438.625653 181.414422 435.527258 173.377232 C 452.417005 169.906098 466.418022 161.496169 477.507014 147.867891 C 488.642598 134.495872 494.39676 118.770936 494.39676 101.135711 C 494.39676 80.821423 487.105049 63.372568 472.731293 49.022108 C 458.380832 34.648351 440.908681 27.35664 420.617689 27.35664 C 400.07044 27.35664 382.668177 34.648351 368.247828 49.022108 C 353.897368 63.372568 346.838619 80.821423 346.838619 101.135711 C 346.838619 119.330044 352.59278 135.24135 364.473843 149.055998 C 376.121944 162.847349 390.891736 171.070908 408.550257 173.936341 C 409.854844 183.161637 413.698717 190.826087 420.011988 197.325728 C 426.138889 203.825368 433.61697 208.461312 442.050195 211.140375 C 450.506716 213.796142 459.68542 214.215474 470.028933 212.305185 C 480.395743 210.581266 489.947186 206.364654 498.986112 199.632052 Z M 376.121944 101.135711 C 376.121944 88.695539 380.385149 78.119064 388.981447 69.499469 C 397.414673 61.08954 407.944556 56.686558 420.617689 56.686558 C 433.057861 56.686558 443.587744 61.08954 452.184043 69.499469 C 460.66386 78.119064 465.066842 88.695539 465.066842 101.135711 C 465.066842 113.762252 460.66386 124.338728 452.184043 132.771953 C 443.587744 141.368251 433.057861 145.584864 420.617689 145.584864 C 407.944556 145.584864 397.414673 141.368251 388.981447 132.771953 C 380.385149 124.338728 376.121944 113.762252 376.121944 101.135711 Z M 376.121944 101.135711 " stroke="#ffde59" stroke-width="7.186751" stroke-opacity="1" stroke-miterlimit="4"/></svg>