<svg xmlns="http://www.w3.org/2000/svg" xmlns:xlink="http://www.w3.org/1999/xlink" width="500" zoomAndPan="magnify" viewBox="0 0 375 374.999991" height="500" preserveAspectRatio="xMidYMid meet" version="1.0"><defs><clipPath id="bbed980a3c"><path d="M 89.550781 119 L 287.550781 119 L 287.550781 258.4375 L 89.550781 258.4375 Z M 89.550781 119 " clip-rule="nonzero"/></clipPath></defs><g clip-path="url(#bbed980a3c)"><path fill="#ff0000" d="M 283.230469 140.820312 C 282.945312 139.777344 282.597656 138.75 282.179688 137.75 C 281.761719 136.75 281.28125 135.78125 280.738281 134.84375 C 280.195312 133.902344 279.59375 133.003906 278.933594 132.144531 C 278.273438 131.285156 277.5625 130.472656 276.796875 129.707031 C 276.03125 128.9375 275.21875 128.222656 274.359375 127.5625 C 273.5 126.902344 272.601562 126.300781 271.664062 125.757812 C 270.726562 125.214844 269.757812 124.734375 268.757812 124.316406 C 267.761719 123.898438 266.738281 123.546875 265.691406 123.265625 C 250.316406 119.0625 188.429688 119.0625 188.429688 119.0625 C 188.429688 119.0625 126.539062 119.183594 111.160156 123.386719 C 110.113281 123.671875 109.089844 124.023438 108.089844 124.441406 C 107.089844 124.855469 106.121094 125.335938 105.1875 125.882812 C 104.25 126.425781 103.351562 127.027344 102.492188 127.6875 C 101.632812 128.347656 100.820312 129.0625 100.054688 129.828125 C 99.289062 130.597656 98.574219 131.410156 97.914062 132.269531 C 97.253906 133.128906 96.652344 134.027344 96.109375 134.964844 C 95.566406 135.902344 95.085938 136.875 94.671875 137.875 C 94.253906 138.875 93.902344 139.898438 93.621094 140.945312 C 89.550781 156.34375 89.550781 188.53125 89.550781 188.53125 C 89.550781 188.53125 89.550781 220.722656 93.746094 236.242188 C 94.03125 237.289062 94.382812 238.3125 94.796875 239.3125 C 95.214844 240.3125 95.695312 241.28125 96.238281 242.222656 C 96.78125 243.160156 97.382812 244.058594 98.042969 244.917969 C 98.703125 245.777344 99.414062 246.589844 100.179688 247.359375 C 100.945312 248.125 101.757812 248.839844 102.617188 249.5 C 103.476562 250.160156 104.375 250.761719 105.3125 251.304688 C 106.25 251.851562 107.21875 252.332031 108.21875 252.746094 C 109.21875 253.164062 110.242188 253.515625 111.285156 253.800781 C 126.660156 258.003906 188.550781 258.003906 188.550781 258.003906 C 188.550781 258.003906 250.441406 258.003906 265.820312 253.800781 C 266.867188 253.519531 267.890625 253.167969 268.890625 252.75 C 269.890625 252.332031 270.859375 251.851562 271.796875 251.308594 C 272.730469 250.765625 273.628906 250.164062 274.488281 249.503906 C 275.347656 248.84375 276.160156 248.128906 276.925781 247.359375 C 277.691406 246.59375 278.40625 245.78125 279.066406 244.921875 C 279.726562 244.0625 280.328125 243.164062 280.871094 242.222656 C 281.414062 241.285156 281.894531 240.316406 282.308594 239.316406 C 282.726562 238.316406 283.078125 237.289062 283.359375 236.246094 C 287.550781 220.847656 287.550781 188.53125 287.550781 188.53125 C 287.550781 188.53125 287.429688 156.34375 283.230469 140.820312 Z M 283.230469 140.820312 " fill-opacity="1" fill-rule="nonzero"/></g><path fill="#ffffff" d="M 168.726562 218.300781 L 220.066406 188.53125 L 168.722656 158.761719 Z M 168.726562 218.300781 " fill-opacity="1" fill-rule="nonzero"/></svg>